<?xml version="1.0" encoding="UTF-8"?>
<!--
  Il marchio: «undicesima», il monogramma, «casa». Le lettere sono Jost a
  19,29 convertita in tracciati; il monogramma è quello di `favicon.svg`,
  portato qui dalla sua griglia di 64 con un solo `scale`.

  Il respiro attorno al monogramma è 1,84 per lato. Era 1,76, e con quello il
  riquadro toccava la «a» e la «c»: un blocco pieno ha bisogno di più aria di
  una lettera, non di meno.

  I due file condividono riquadro e coordinate: si sostituiscono l'uno
  all'altro senza che nulla intorno si muova.
-->
<svg xmlns="http://www.w3.org/2000/svg" width="597.6080" height="76.9971" viewBox="0 0 149.40201 19.249283">
  <g fill="#1a1917" transform="translate(-31.609817,39.449901)">
    <path d="m 33.153224,-27.874339 v -5.401928 h -1.543409 v 5.594854 q 0,1.581994 0.829582,2.527331 0.829582,0.945338 2.218649,0.945338 0.88746,0 1.543408,-0.385852 0.655949,-0.405145 1.099679,-1.196142 v 1.389068 h 1.543408 v -8.874597 h -1.543408 v 5.401928 q 0,0.655949 -0.289389,1.157556 -0.270097,0.501608 -0.790997,0.790997 -0.501608,0.270097 -1.176849,0.270097 -0.926044,0 -1.408359,-0.578779 -0.482315,-0.578778 -0.482315,-1.639871 z m 14.276516,-1.92926 v 5.401929 h 1.543408 v -5.594855 q 0,-1.601285 -0.829581,-2.52733 -0.81029,-0.945338 -2.218649,-0.945338 -0.868167,0 -1.543409,0.385852 -0.655948,0.385852 -1.099678,1.196141 v -1.389067 h -1.543408 v 8.874597 h 1.543408 v -5.401929 q 0,-0.655948 0.270097,-1.157556 0.289389,-0.501607 0.790996,-0.771704 0.520901,-0.289389 1.196142,-0.289389 0.926044,0 1.408359,0.559486 0.482315,0.559485 0.482315,1.659163 z m 11.093238,-9.6463 v 15.048229 h 1.543408 v -15.048229 z m -7.427651,10.61093 q 0,1.427653 0.598071,2.469453 0.59807,1.041801 1.601285,1.601286 1.003216,0.559486 2.199357,0.559486 1.118971,0 1.948553,-0.559486 0.829581,-0.559485 1.292604,-1.601286 0.482315,-1.0418 0.482315,-2.469453 0,-1.446945 -0.482315,-2.469452 -0.463023,-1.041801 -1.292604,-1.601286 -0.829582,-0.559486 -1.948553,-0.559486 -1.196141,0 -2.199357,0.559486 -1.003215,0.559485 -1.601285,1.601286 -0.598071,1.022507 -0.598071,2.469452 z m 1.562701,0 q 0,-1.022507 0.405144,-1.736334 0.424437,-0.713826 1.118971,-1.080385 0.694534,-0.36656 1.504823,-0.36656 0.675241,0 1.331189,0.36656 0.655949,0.366559 1.080386,1.080385 0.424437,0.713827 0.424437,1.736334 0,1.022508 -0.424437,1.736334 -0.424437,0.713827 -1.080386,1.080386 -0.655948,0.36656 -1.331189,0.36656 -0.810289,0 -1.504823,-0.36656 -0.694534,-0.366559 -1.118971,-1.080386 -0.405144,-0.713826 -0.405144,-1.736334 z m 10.20578,-8.102892 q 0,0.424437 0.308681,0.752412 0.327974,0.308681 0.752412,0.308681 0.443729,0 0.752411,-0.308681 0.308682,-0.327975 0.308682,-0.752412 0,-0.44373 -0.308682,-0.752411 -0.308682,-0.308682 -0.752411,-0.308682 -0.424438,0 -0.752412,0.308682 -0.308681,0.308681 -0.308681,0.752411 z m 0.289389,3.665594 v 8.874597 h 1.543408 v -8.874597 z m 5.421225,4.437298 q 0,-0.926044 0.385852,-1.639871 0.405145,-0.733118 1.080386,-1.138263 0.694533,-0.405145 1.5627,-0.405145 0.713827,0 1.33119,0.231512 0.636656,0.212218 1.099678,0.578778 0.463022,0.366559 0.655948,0.810289 v -1.92926 q -0.463022,-0.540193 -1.331189,-0.829582 -0.848874,-0.308682 -1.755627,-0.308682 -1.292604,0 -2.334404,0.598071 -1.041801,0.59807 -1.659164,1.639871 -0.598071,1.0418 -0.598071,2.392282 0,1.33119 0.598071,2.392283 0.617363,1.0418 1.659164,1.639871 1.0418,0.598071 2.334404,0.598071 0.906753,0 1.755627,-0.289389 0.868167,-0.308682 1.331189,-0.848875 v -1.92926 q -0.192926,0.424437 -0.655948,0.810289 -0.463022,0.36656 -1.099678,0.598071 -0.617363,0.212219 -1.33119,0.212219 -0.868167,0 -1.5627,-0.405145 -0.675241,-0.424437 -1.080386,-1.138264 -0.385852,-0.713826 -0.385852,-1.639871 z m 11.961424,4.630225 q 1.427652,0 2.469452,-0.559486 1.061093,-0.578778 1.755627,-1.697749 l -1.254019,-0.790996 q -0.482315,0.810289 -1.176849,1.215433 -0.694533,0.385853 -1.601285,0.385853 -0.906753,0 -1.543409,-0.385853 -0.636655,-0.385852 -0.96463,-1.11897 -0.327974,-0.733119 -0.327974,-1.77492 0.01929,-1.022507 0.347267,-1.717041 0.347267,-0.713826 0.96463,-1.080386 0.636656,-0.385852 1.524116,-0.385852 0.752411,0 1.311896,0.327975 0.559486,0.327974 0.868167,0.906752 0.327975,0.578778 0.327975,1.369774 0,0.135049 -0.05788,0.347267 -0.05788,0.192926 -0.115756,0.289389 l 0.617363,-0.887459 h -6.366558 v 1.311896 h 7.581992 q 0,-0.03859 0,-0.173633 0.01929,-0.154341 0.01929,-0.289389 0,-1.40836 -0.501608,-2.430868 -0.501607,-1.022508 -1.446945,-1.5627 -0.926045,-0.559486 -2.237941,-0.559486 -1.311897,0 -2.315113,0.578778 -0.983922,0.578778 -1.543408,1.620579 -0.540192,1.0418 -0.540192,2.430867 0,1.369775 0.5209,2.411575 0.540193,1.041801 1.48553,1.639872 0.96463,0.578778 2.199357,0.578778 z m 6.868153,-2.913183 -1.215434,0.752411 q 0.250804,0.5209 0.733119,1.022508 0.501607,0.501608 1.215433,0.829582 0.713827,0.308682 1.601286,0.308682 1.369775,0 2.199357,-0.771704 0.848874,-0.771705 0.848874,-1.929261 0,-0.790996 -0.385852,-1.292604 -0.366559,-0.501607 -1.003215,-0.848874 -0.636656,-0.36656 -1.40836,-0.675241 -0.463022,-0.192926 -0.88746,-0.405145 -0.424437,-0.212218 -0.694533,-0.482315 -0.270097,-0.270096 -0.270097,-0.617363 0,-0.44373 0.347267,-0.655949 0.347267,-0.212218 0.829582,-0.212218 0.694534,0 1.234727,0.327974 0.559485,0.327974 0.926044,0.829582 l 1.234727,-0.790997 q -0.270097,-0.501607 -0.752412,-0.887459 -0.482315,-0.385852 -1.11897,-0.617364 -0.617364,-0.231511 -1.33119,-0.231511 -0.713826,0 -1.389067,0.250804 -0.655949,0.250804 -1.080386,0.771704 -0.405144,0.5209 -0.405144,1.311897 0,0.771704 0.385852,1.292604 0.405144,0.501608 0.983922,0.829582 0.598071,0.308682 1.176849,0.540193 0.5209,0.192926 0.983923,0.424437 0.463022,0.212219 0.752411,0.540193 0.308682,0.308681 0.308682,0.771704 0,0.5209 -0.385852,0.829582 -0.36656,0.289389 -1.022508,0.289389 -0.540193,0 -1.003216,-0.192926 -0.443729,-0.212219 -0.790996,-0.559486 -0.347267,-0.347267 -0.617363,-0.752411 z m 7.408358,-9.819934 q 0,0.424437 0.308681,0.752412 0.327975,0.308681 0.752412,0.308681 0.44373,0 0.752411,-0.308681 0.308682,-0.327975 0.308682,-0.752412 0,-0.44373 -0.308682,-0.752411 -0.308681,-0.308682 -0.752411,-0.308682 -0.424437,0 -0.752412,0.308682 -0.308681,0.308681 -0.308681,0.752411 z m 0.289389,3.665594 v 8.874597 h 1.543408 v -8.874597 z m 16.881024,3.279742 q 0,-1.099678 -0.34726,-1.871382 -0.32798,-0.790997 -0.96463,-1.196141 -0.63666,-0.405145 -1.54341,-0.405145 -0.88746,0 -1.58199,0.424437 -0.69454,0.405145 -1.15756,1.234727 -0.30868,-0.790997 -0.98392,-1.215434 -0.65595,-0.44373 -1.582,-0.44373 -0.82958,0 -1.44694,0.36656 -0.59807,0.366559 -1.00322,1.11897 v -1.292604 h -1.543404 v 8.874597 h 1.543404 v -5.401929 q 0,-0.694533 0.25081,-1.196141 0.2508,-0.501607 0.71382,-0.752411 0.46303,-0.270097 1.09968,-0.270097 0.86817,0 1.27331,0.540193 0.42444,0.540193 0.42444,1.678456 v 5.401929 h 1.54341 v -5.401929 q 0,-0.694533 0.2508,-1.196141 0.25081,-0.501607 0.71383,-0.752411 0.46302,-0.270097 1.09968,-0.270097 0.86816,0 1.27331,0.540193 0.42444,0.540193 0.42444,1.678456 v 5.401929 h 1.5434 z m 3.58844,2.855305 q 0,-0.482315 0.23151,-0.829582 0.23151,-0.347266 0.69453,-0.540192 0.48232,-0.192926 1.23473,-0.192926 0.81029,0 1.52412,0.212218 0.71382,0.192926 1.38906,0.655949 v -0.906753 q -0.13504,-0.173633 -0.5209,-0.443729 -0.38585,-0.289389 -1.0418,-0.501608 -0.63665,-0.231511 -1.60128,-0.231511 -1.63987,0 -2.56592,0.790996 -0.90675,0.771704 -0.90675,2.064309 0,0.906752 0.42444,1.543408 0.42443,0.636656 1.11897,0.983922 0.71382,0.327975 1.52411,0.327975 0.73312,0 1.46624,-0.270097 0.75241,-0.270096 1.25402,-0.829582 0.5209,-0.559485 0.5209,-1.40836 l -0.30868,-1.157556 q 0,0.694534 -0.34727,1.234727 -0.32797,0.5209 -0.90675,0.810289 -0.55949,0.289389 -1.27331,0.289389 -0.55949,0 -1.00322,-0.173633 -0.42443,-0.192926 -0.67524,-0.559486 -0.23151,-0.366559 -0.23151,-0.868167 z m -0.23151,-4.090031 q 0.21222,-0.154341 0.57878,-0.366559 0.36656,-0.212219 0.88746,-0.36656 0.54019,-0.154341 1.19614,-0.154341 0.40514,0 0.7717,0.07717 0.36656,0.07717 0.63666,0.250804 0.28939,0.173633 0.44373,0.482315 0.15434,0.289389 0.15434,0.752411 v 6.15434 h 1.54341 v -6.366559 q 0,-0.868167 -0.44373,-1.466237 -0.42444,-0.598071 -1.21544,-0.906753 -0.7717,-0.327974 -1.8135,-0.327974 -1.23473,0 -2.12219,0.36656 -0.86816,0.366559 -1.36977,0.733118 z"/>
    <path d="m 145.07457,-28.879839 q 0,-0.926045 0.38585,-1.639871 0.40515,-0.733119 1.08039,-1.138264 0.69453,-0.405144 1.5627,-0.405144 0.71382,0 1.33119,0.231511 0.63665,0.212218 1.09967,0.578778 0.46303,0.366559 0.65595,0.810289 v -1.92926 q -0.46302,-0.540193 -1.33119,-0.829582 -0.84887,-0.308681 -1.75562,-0.308681 -1.29261,0 -2.33441,0.59807 -1.0418,0.598071 -1.65916,1.639871 -0.59807,1.041801 -0.59807,2.392283 0,1.331189 0.59807,2.392282 0.61736,1.041801 1.65916,1.639871 1.0418,0.598071 2.33441,0.598071 0.90675,0 1.75562,-0.289389 0.86817,-0.308682 1.33119,-0.848875 v -1.92926 q -0.19292,0.424438 -0.65595,0.81029 -0.46302,0.366559 -1.09967,0.59807 -0.61737,0.212219 -1.33119,0.212219 -0.86817,0 -1.5627,-0.405145 -0.67524,-0.424437 -1.08039,-1.138263 -0.38585,-0.713826 -0.38585,-1.639871 z m 9.22187,1.697749 q 0,-0.482315 0.23152,-0.829582 0.23151,-0.347267 0.69453,-0.540193 0.48231,-0.192926 1.23473,-0.192926 0.81028,0 1.52411,0.212219 0.71383,0.192926 1.38907,0.655948 v -0.906752 q -0.13505,-0.173634 -0.5209,-0.44373 -0.38585,-0.289389 -1.0418,-0.501608 -0.63666,-0.231511 -1.60129,-0.231511 -1.63987,0 -2.56591,0.790997 -0.90676,0.771704 -0.90676,2.064308 0,0.906752 0.42444,1.543408 0.42444,0.636656 1.11897,0.983923 0.71383,0.327974 1.52412,0.327974 0.73312,0 1.46623,-0.270097 0.75242,-0.270096 1.25402,-0.829581 0.5209,-0.559486 0.5209,-1.40836 l -0.30868,-1.157556 q 0,0.694533 -0.34726,1.234726 -0.32798,0.5209 -0.90676,0.810289 -0.55948,0.289389 -1.27331,0.289389 -0.55948,0 -1.00321,-0.173633 -0.42444,-0.192926 -0.67524,-0.559485 -0.23152,-0.36656 -0.23152,-0.868167 z m -0.23151,-4.090032 q 0.21222,-0.154341 0.57878,-0.366559 0.36656,-0.212219 0.88746,-0.36656 0.54019,-0.15434 1.19614,-0.15434 0.40515,0 0.77171,0.07717 0.36656,0.07717 0.63665,0.250804 0.28939,0.173633 0.44373,0.482315 0.15434,0.289389 0.15434,0.752411 v 6.15434 h 1.54341 v -6.366558 q 0,-0.868167 -0.44373,-1.466238 -0.42444,-0.598071 -1.21543,-0.906752 -0.77171,-0.327974 -1.81351,-0.327974 -1.23472,0 -2.12218,0.366559 -0.86817,0.366559 -1.36978,0.733119 z m 9.1833,4.109324 -1.21544,0.752412 q 0.25081,0.5209 0.73312,1.022507 0.50161,0.501608 1.21544,0.829582 0.71382,0.308682 1.60128,0.308682 1.36978,0 2.19936,-0.771704 0.84887,-0.771704 0.84887,-1.92926 0,-0.790997 -0.38585,-1.292604 -0.36656,-0.501608 -1.00321,-0.848875 -0.63666,-0.366559 -1.40836,-0.675241 -0.46303,-0.192926 -0.88746,-0.405145 -0.42444,-0.212218 -0.69454,-0.482315 -0.27009,-0.270096 -0.27009,-0.617363 0,-0.44373 0.34726,-0.655948 0.34727,-0.212219 0.82958,-0.212219 0.69454,0 1.23473,0.327974 0.55949,0.327975 0.92605,0.829582 l 1.23472,-0.790996 q -0.27009,-0.501608 -0.75241,-0.88746 -0.48231,-0.385852 -1.11897,-0.617363 -0.61736,-0.231511 -1.33119,-0.231511 -0.71383,0 -1.38907,0.250803 -0.65594,0.250804 -1.08038,0.771704 -0.40515,0.520901 -0.40515,1.311897 0,0.771704 0.38586,1.292604 0.40514,0.501608 0.98392,0.829582 0.59807,0.308682 1.17685,0.540193 0.5209,0.192926 0.98392,0.424437 0.46302,0.212219 0.75241,0.540193 0.30868,0.308682 0.30868,0.771704 0,0.5209 -0.38585,0.829582 -0.36656,0.289389 -1.02251,0.289389 -0.54019,0 -1.00321,-0.192926 -0.44373,-0.212219 -0.791,-0.559485 -0.34727,-0.347267 -0.61736,-0.752412 z m 8.10289,-0.01929 q 0,-0.482315 0.23151,-0.829582 0.23151,-0.347267 0.69453,-0.540193 0.48232,-0.192926 1.23473,-0.192926 0.81029,0 1.52412,0.212219 0.71382,0.192926 1.38906,0.655948 v -0.906752 q -0.13505,-0.173634 -0.5209,-0.44373 -0.38585,-0.289389 -1.0418,-0.501608 -0.63665,-0.231511 -1.60128,-0.231511 -1.63987,0 -2.56592,0.790997 -0.90675,0.771704 -0.90675,2.064308 0,0.906752 0.42444,1.543408 0.42443,0.636656 1.11897,0.983923 0.71382,0.327974 1.52411,0.327974 0.73312,0 1.46624,-0.270097 0.75241,-0.270096 1.25402,-0.829581 0.5209,-0.559486 0.5209,-1.40836 l -0.30868,-1.157556 q 0,0.694533 -0.34727,1.234726 -0.32797,0.5209 -0.90675,0.810289 -0.55949,0.289389 -1.27331,0.289389 -0.55949,0 -1.00322,-0.173633 -0.42444,-0.192926 -0.67524,-0.559485 -0.23151,-0.36656 -0.23151,-0.868167 z m -0.23151,-4.090032 q 0.21222,-0.154341 0.57878,-0.366559 0.36656,-0.212219 0.88746,-0.36656 0.54019,-0.15434 1.19614,-0.15434 0.40514,0 0.7717,0.07717 0.36656,0.07717 0.63666,0.250804 0.28939,0.173633 0.44373,0.482315 0.15434,0.289389 0.15434,0.752411 v 6.15434 h 1.54341 v -6.366558 q 0,-0.868167 -0.44373,-1.466238 -0.42444,-0.598071 -1.21544,-0.906752 -0.7717,-0.327974 -1.8135,-0.327974 -1.23473,0 -2.12219,0.366559 -0.86817,0.366559 -1.36977,0.733119 z" transform="translate(3.68,0)"/>
  </g>
  <g transform="translate(93.54267,0.810184) scale(0.28810645)">
    <rect width="64" height="64" rx="9.7" fill="#1a1917"/>
    <g fill="none" stroke="#fab219" stroke-width="5.6">
      <path d="M16.8 19.2 36.4 44.8M36.4 19.2 16.8 44.8"/>
      <path d="M46.6 17.5V46.5"/>
    </g>
  </g>
</svg>
